<svg width="124" height="124" viewBox="0 0 124 124" fill="none" xmlns="http://www.w3.org/2000/svg">
<path d="M18.5 8.00294C18.5008 5.98388 21.1537 5.23729 22.207 6.95997L39.9639 36.0186C46.5737 32.1287 54.2757 29.8955 62.5 29.8955C87.0765 29.8955 107 49.8191 107 74.3955C107 98.972 87.0766 118.896 62.5 118.896C37.9234 118.896 18.0002 98.972 18 74.3955C18 72.1228 18.1713 69.8891 18.5 67.708V8.00294ZM62.5 53C50.6259 53 41.0001 62.7067 41 74.6797C41.0002 86.6527 50.626 96.3584 62.5 96.3584C66.4736 96.3584 70.1951 95.2711 73.3887 93.376L81.9678 107.532C82.4767 108.371 83.7583 108.008 83.7588 107.024V77.9375C83.9176 76.875 84 75.7869 84 74.6797C83.9999 62.7067 74.3741 53 62.5 53Z" fill="#BA1863"/>
</svg>
