<svg width="342" height="115" viewBox="0 0 342 115" fill="none" xmlns="http://www.w3.org/2000/svg">
<path d="M332.408 70.6094C332.408 63.7217 331.141 57.6365 328.607 52.3535L328.358 51.8447C325.748 46.3548 321.924 42.0795 316.884 39.0195C312.001 35.968 306.19 34.3942 299.449 34.2988L298.794 34.2949C291.684 34.2949 285.384 35.9143 279.894 39.1543C274.404 42.3043 270.084 46.7148 266.934 52.3848C263.874 57.9646 262.344 64.4444 262.344 71.8242L262.349 72.5059C262.447 79.519 264.065 85.7719 267.204 91.2646C270.534 96.8446 275.079 101.255 280.839 104.495C286.506 107.547 292.934 109.12 300.121 109.215L300.818 109.22C304.958 109.22 309.278 108.455 313.778 106.925C318.368 105.395 322.194 103.414 325.254 100.984C326.688 99.8875 327.41 98.5929 327.421 97.1006L327.414 96.7998C327.33 95.281 326.612 93.8811 325.262 92.5996L324.983 92.3447C323.813 91.3548 322.419 90.9052 320.799 90.9951L320.513 91C319.089 91.058 317.744 91.5514 316.479 92.4795C314.679 93.8295 312.293 95.045 309.323 96.125L308.784 96.3047C306.089 97.1748 303.434 97.6094 300.818 97.6094V92.6094C302.993 92.6094 305.263 92.2266 307.65 91.4111C310.31 90.441 312.201 89.4374 313.479 88.4795L313.5 88.4639L313.521 88.4473C315.598 86.9245 317.998 86.0359 320.624 85.998C323.4 85.867 326.033 86.6829 328.213 88.5273L328.253 88.5615L328.292 88.5957C330.552 90.5901 332.224 93.2422 332.406 96.5225C332.604 100.087 330.884 102.94 328.361 104.898L328.363 104.9C324.752 107.768 320.376 109.996 315.359 111.668L315.358 111.667C310.426 113.341 305.571 114.22 300.818 114.22C292.625 114.22 285.133 112.486 278.468 108.897L278.388 108.853C271.881 105.193 266.695 100.169 262.91 93.8271L262.886 93.7861L262.862 93.7451C259.142 87.2347 257.344 79.8808 257.344 71.8242C257.344 63.7391 259.025 56.4073 262.55 49.9805L262.557 49.9688L262.562 49.9561C266.143 43.5112 271.106 38.432 277.405 34.8174C283.738 31.0933 290.918 29.2949 298.794 29.2949C306.579 29.295 313.565 31.049 319.533 34.7793H319.532C325.379 38.3429 329.825 43.3278 332.83 49.6084C334.561 53.0695 335.784 56.7914 336.528 60.75H341.98L337.041 64.123C337.287 66.2252 337.408 68.3883 337.408 70.6094C337.408 73.5957 336.331 76.3227 334.189 78.4648L334.118 78.5361L334.045 78.6035C331.829 80.6487 329.079 81.5498 326.198 81.5498H281.655C281.825 81.886 282.003 82.2175 282.191 82.542C283.989 85.6334 286.448 88.0666 289.653 89.8877C292.769 91.658 296.443 92.6093 300.818 92.6094V97.6094C295.688 97.6093 291.144 96.4843 287.184 94.2344C283.471 92.125 280.51 89.3037 278.301 85.7705L277.868 85.0547C276.361 82.4623 275.362 79.6269 274.864 76.5498H326.198L326.532 76.543C328.183 76.4797 329.556 75.9421 330.653 74.9297C331.823 73.7597 332.408 72.3194 332.408 70.6094ZM299.63 45.917C303.769 46.0383 307.316 47.0692 310.269 49.0098C313.419 51.0798 315.849 53.9147 317.559 57.5146C318.774 60.0095 319.578 62.7549 319.975 65.75H275.017C275.48 63.189 276.25 60.8038 277.329 58.5947C279.219 54.6348 281.964 51.5293 285.563 49.2793C289.253 47.0293 293.664 45.9043 298.794 45.9043L299.63 45.917ZM298.794 50.9043C294.418 50.9043 290.952 51.8558 288.185 53.5381C285.434 55.2648 283.33 57.6272 281.841 60.748L281.84 60.75H313.535C313.387 60.3937 313.229 60.0448 313.063 59.7041L313.053 59.6826L313.042 59.6602C311.701 56.8377 309.863 54.7264 307.522 53.1885C305.335 51.751 302.51 50.9043 298.794 50.9043Z" fill="#262626"/>
<path d="M149.404 41.7197C149.404 39.6497 148.775 37.9846 147.515 36.7246C146.333 35.5435 144.796 34.9157 142.903 34.8418L142.52 34.835C140.54 34.835 138.874 35.4647 137.524 36.7246C136.265 37.9846 135.635 39.6498 135.635 41.7197V101.795L135.643 102.162C135.716 103.981 136.343 105.524 137.524 106.79C138.874 108.05 140.54 108.68 142.52 108.68C144.46 108.68 146.045 108.126 147.273 107.019L147.515 106.79C148.696 105.524 149.324 103.982 149.397 102.162L149.404 101.795V41.7197ZM151.43 13.9102C151.43 11.4802 150.529 9.40922 148.729 7.69922C147.126 6.01184 145.207 5.11512 142.971 5.00977L142.52 5C140.09 5.00006 137.975 5.89945 136.175 7.69922L135.864 8.02441C134.361 9.66975 133.609 11.632 133.609 13.9102L133.62 14.3613C133.72 16.6027 134.572 18.5673 136.175 20.2549C137.975 21.9648 140.09 22.8193 142.52 22.8193C144.798 22.8193 146.76 22.0684 148.405 20.5654L148.729 20.2549C150.417 18.5673 151.314 16.6027 151.419 14.3613L151.43 13.9102ZM154.404 101.795C154.404 104.941 153.36 107.855 151.17 110.201L151.111 110.265L151.051 110.325C148.701 112.675 145.684 113.68 142.52 113.68C139.373 113.68 136.46 112.635 134.113 110.445L133.987 110.327L133.869 110.201C131.679 107.855 130.635 104.941 130.635 101.795V41.7197C130.635 38.5555 131.64 35.5392 133.989 33.1895L134.05 33.1279L134.113 33.0693C136.46 30.8793 139.373 29.835 142.52 29.835C145.684 29.835 148.701 30.8397 151.051 33.1895C153.4 35.5392 154.404 38.5556 154.404 41.7197V101.795ZM156.43 13.9102C156.43 17.7345 154.953 21.1022 152.266 23.79C149.613 26.4428 146.268 27.8193 142.52 27.8193C138.777 27.8193 135.438 26.4511 132.731 23.8799L132.638 23.791L132.55 23.6982C129.978 20.9916 128.609 17.6523 128.609 13.9102C128.609 10.1613 129.987 6.81684 132.64 4.16406C135.328 1.47626 138.695 6.05927e-05 142.52 0C146.305 0 149.638 1.45009 152.254 4.15234C154.971 6.77174 156.43 10.1138 156.43 13.9102Z" fill="#262626"/>
<path d="M63.6328 101.93V41.585C63.6328 38.5204 64.4828 35.4225 66.8516 33.0537C69.2203 30.685 72.3183 29.835 75.3828 29.835C78.3805 29.835 81.5652 30.6082 83.917 33.0566C84.4704 33.5892 84.9377 34.1645 85.3301 34.7705C86.0391 34.3057 86.7689 33.8627 87.5195 33.4424C92.8015 30.4845 98.5988 29.0244 104.812 29.0244C110.548 29.0244 115.742 29.9419 119.583 32.5527C121.39 33.7111 123.065 35.2523 124.101 37.3232C125.173 39.4675 125.35 41.7678 124.821 43.9824L124.73 44.375C124.245 46.3299 123.272 48.1858 121.634 49.6416L121.62 49.6543L121.604 49.668C120.169 50.9242 118.473 51.7062 116.642 52.0391C114.911 52.3538 113.179 52.253 111.512 51.8828V51.8848C106.264 50.8188 101.804 50.7899 98.0361 51.6025C94.1911 52.4319 91.4916 53.8902 89.6143 55.7539C88.0192 57.4178 87.1328 59.5388 87.1328 62.5098V101.93C87.1328 104.964 86.2972 108.029 83.9814 110.389C81.6236 112.891 78.4082 113.68 75.3828 113.68C72.4205 113.68 69.3768 112.931 66.9961 110.733L66.9229 110.666L66.8516 110.596C64.4468 108.191 63.6328 105.016 63.6328 101.93ZM68.6328 101.93L68.6396 102.346C68.7083 104.392 69.2909 105.963 70.3877 107.06C71.4846 108.072 73.0164 108.611 74.9834 108.674L75.3828 108.68C77.6324 108.68 79.297 108.095 80.377 106.925C81.4738 105.828 82.0574 104.296 82.126 102.329L82.1328 101.93V62.5098L82.1367 62.124C82.2157 58.1568 83.5193 54.8657 86.0479 52.25C88.5791 49.7188 91.9405 47.9385 96.1328 46.9102L96.9824 46.7148C101.572 45.7248 106.748 45.8144 112.508 46.9844C113.531 47.2206 114.486 47.285 115.372 47.1768L115.747 47.1201C116.613 46.9626 117.377 46.6328 118.036 46.1309L118.312 45.9043C119.122 45.1843 119.663 44.1944 119.933 42.9346C120.563 40.5046 119.527 38.4346 116.827 36.7246C114.38 35.0372 110.707 34.1406 105.809 34.0352L104.812 34.0244C99.4126 34.0244 94.4628 35.2848 89.9629 37.8047L89.1289 38.2881C86.4643 39.8869 84.1335 41.8193 82.1328 44.082V41.585C82.1328 39.335 81.547 37.6698 80.377 36.5898C79.3645 35.4931 77.8384 34.9104 75.7979 34.8418L75.3828 34.835C73.2228 34.835 71.5577 35.4199 70.3877 36.5898L70.1748 36.8145C69.1464 37.9694 68.6328 39.5599 68.6328 41.585V101.93Z" fill="#262626"/>
<path d="M24.3047 6.34473C27.4493 6.34473 30.3942 7.39323 32.7002 9.69922C35.0062 12.0052 36.0547 14.9501 36.0547 18.0947V32.5352H42.5303C45.4275 32.5352 48.2491 33.393 50.5107 35.4805C52.8451 37.6352 53.875 40.4802 53.875 43.4746C53.875 46.4625 52.7263 49.1531 50.5107 51.1982C48.249 53.286 45.4277 54.1444 42.5303 54.1445H36.0547V82.4893C36.0547 85.1185 36.7544 86.9683 37.9014 88.376C39.0274 89.758 40.083 90.1796 41.3145 90.1797H45.9053C48.9576 90.1798 51.627 91.4256 53.6172 93.668L53.6191 93.667C55.7779 95.9918 56.71 98.8926 56.71 101.93C56.71 105.405 55.2756 108.441 52.5938 110.649C50.0707 112.803 46.9663 113.68 43.7451 113.68H41.3145C35.9363 113.68 30.9576 112.322 26.5146 109.545L26.4775 109.521L26.4395 109.497C22.0892 106.669 18.6797 102.86 16.2285 98.1709C13.7459 93.4216 12.5547 88.1575 12.5547 82.4893V54.1445H11.3447C8.44719 54.1445 5.6251 53.2861 3.36328 51.1982C1.14794 49.1532 0 46.4623 0 43.4746C1.75852e-05 40.4802 1.02895 37.6352 3.36328 35.4805C5.62509 33.3927 8.4472 32.5352 11.3447 32.5352H12.5547V18.0947C12.5547 14.9502 13.6032 12.0052 15.9092 9.69922C18.2152 7.39323 21.1601 6.34475 24.3047 6.34473ZM298.798 34.2949C305.818 34.2949 311.848 35.8696 316.888 39.0195C321.928 42.0795 325.752 46.3549 328.362 51.8447C331.062 57.2447 332.413 63.5003 332.413 70.6104C332.413 72.3202 331.827 73.7598 330.657 74.9297C329.487 76.0095 328.003 76.5497 326.203 76.5498H274.868C275.366 79.627 276.366 82.4621 277.873 85.0547C280.123 88.9247 283.227 91.9854 287.188 94.2354C291.147 96.4853 295.692 97.6103 300.822 97.6104C303.612 97.6104 306.448 97.115 309.328 96.125C312.298 95.0451 314.683 93.8303 316.482 92.4805C317.832 91.4905 319.273 90.9951 320.803 90.9951C322.423 90.9051 323.817 91.3549 324.987 92.3447C326.517 93.6947 327.328 95.1799 327.418 96.7998C327.508 98.4198 326.788 99.8154 325.258 100.985C322.198 103.415 318.372 105.395 313.782 106.925C309.282 108.455 304.962 109.22 300.822 109.22C293.352 109.22 286.693 107.645 280.843 104.495C275.083 101.255 270.538 96.8446 267.208 91.2646C263.968 85.5947 262.348 79.1151 262.348 71.8252C262.348 64.4452 263.878 57.9648 266.938 52.3848C270.087 46.7149 274.408 42.3052 279.897 39.1553C285.387 35.9153 291.688 34.2949 298.798 34.2949ZM104.814 34.0254C110.214 34.0254 114.22 34.9246 116.83 36.7246C119.53 38.4345 120.564 40.5047 119.935 42.9346C119.665 44.1946 119.124 45.1853 118.314 45.9053C117.595 46.5351 116.74 46.9401 115.75 47.1201C114.76 47.3001 113.68 47.2553 112.51 46.9854C106.75 45.8154 101.574 45.7248 96.9844 46.7148C92.3945 47.7049 88.7497 49.5501 86.0498 52.25C83.4398 54.95 82.1348 58.3699 82.1348 62.5098V101.93C82.1348 104.09 81.5498 105.755 80.3799 106.925C79.2999 108.095 77.6348 108.68 75.3848 108.68C73.2248 108.68 71.5596 108.14 70.3896 107.06C69.2198 105.89 68.6348 104.18 68.6348 101.93V41.585C68.6348 39.425 69.2196 37.7598 70.3896 36.5898C71.5596 35.4198 73.2248 34.835 75.3848 34.835C77.6348 34.835 79.2999 35.4198 80.3799 36.5898C81.5499 37.6698 82.1348 39.335 82.1348 41.585V44.083C84.3416 41.587 86.9503 39.4929 89.9648 37.8047C94.4647 35.2848 99.4146 34.0254 104.814 34.0254ZM142.523 34.835C144.593 34.835 146.259 35.4647 147.519 36.7246C148.778 37.9846 149.408 39.6498 149.408 41.7197V101.795C149.408 103.775 148.778 105.44 147.519 106.79C146.259 108.05 144.593 108.68 142.523 108.68C140.543 108.68 138.878 108.05 137.528 106.79C136.268 105.44 135.639 103.775 135.639 101.795V41.7197C135.639 39.6498 136.268 37.9846 137.528 36.7246C138.878 35.4647 140.544 34.835 142.523 34.835ZM44.8916 108.624C44.9187 108.621 44.9457 108.619 44.9727 108.616C44.9457 108.619 44.9187 108.621 44.8916 108.624ZM45.1914 108.59C45.2523 108.582 45.3129 108.575 45.373 108.566C45.3129 108.575 45.2523 108.582 45.1914 108.59ZM45.5771 108.533C45.6341 108.524 45.6908 108.515 45.7471 108.505C45.6908 108.515 45.6341 108.524 45.5771 108.533ZM45.9531 108.463C46.008 108.451 46.0629 108.441 46.1172 108.429C46.0629 108.441 46.008 108.451 45.9531 108.463ZM46.3223 108.379C46.3717 108.366 46.4209 108.354 46.4697 108.341C46.4209 108.354 46.3717 108.366 46.3223 108.379ZM46.6855 108.278C46.733 108.264 46.7802 108.249 46.8271 108.234C46.7802 108.249 46.733 108.264 46.6855 108.278ZM46.999 108.178C47.0624 108.156 47.1251 108.133 47.1875 108.109C47.1251 108.133 47.0624 108.156 46.999 108.178ZM47.335 108.053C47.3958 108.029 47.4558 108.003 47.5156 107.978C47.4558 108.003 47.3958 108.029 47.335 108.053ZM47.6748 107.908C47.719 107.888 47.763 107.868 47.8066 107.847C47.763 107.868 47.719 107.888 47.6748 107.908ZM47.9961 107.753C48.0385 107.731 48.0802 107.708 48.1221 107.686C48.0802 107.708 48.0385 107.731 47.9961 107.753ZM48.2969 107.589C48.3459 107.561 48.3942 107.531 48.4424 107.502C48.3942 107.531 48.3459 107.561 48.2969 107.589ZM33.2031 107.285C33.3322 107.333 33.4618 107.379 33.5918 107.424C33.4618 107.379 33.3322 107.333 33.2031 107.285ZM48.5957 107.406C48.645 107.374 48.6937 107.342 48.7422 107.309C48.6937 107.342 48.645 107.374 48.5957 107.406ZM49.8301 106.418C49.8656 106.384 49.902 106.351 49.9365 106.316C49.902 106.351 49.8656 106.384 49.8301 106.418ZM50.042 106.206C50.0866 106.159 50.131 106.113 50.1738 106.065C50.131 106.113 50.0866 106.159 50.042 106.206ZM50.2695 105.955C50.3137 105.904 50.3573 105.852 50.3994 105.8C50.3573 105.852 50.3137 105.904 50.2695 105.955ZM50.4902 105.683C50.5264 105.635 50.5621 105.588 50.5967 105.54C50.5621 105.588 50.5264 105.635 50.4902 105.683ZM50.6758 105.427C50.7104 105.376 50.7445 105.326 50.7773 105.274C50.7445 105.326 50.7104 105.376 50.6758 105.427ZM50.8643 105.133C50.892 105.087 50.9189 105.04 50.9453 104.993C50.9189 105.04 50.892 105.087 50.8643 105.133ZM51.0312 104.837C51.0537 104.794 51.0753 104.751 51.0967 104.707C51.0753 104.751 51.0537 104.794 51.0312 104.837ZM51.168 104.556C51.1902 104.507 51.2116 104.458 51.2324 104.408C51.2116 104.458 51.1902 104.507 51.168 104.556ZM51.293 104.261C51.3118 104.212 51.3291 104.163 51.3467 104.114C51.3291 104.163 51.3118 104.212 51.293 104.261ZM51.4053 103.944C51.42 103.899 51.4336 103.853 51.4473 103.807C51.4336 103.853 51.42 103.899 51.4053 103.944ZM51.498 103.631C51.5183 103.554 51.5364 103.477 51.5537 103.398C51.5364 103.477 51.5183 103.554 51.498 103.631ZM51.5693 103.327C51.5871 103.242 51.6028 103.156 51.6172 103.069C51.6028 103.156 51.5871 103.242 51.5693 103.327ZM51.6738 102.655C51.6625 102.768 51.6476 102.879 51.6309 102.988C51.6653 102.763 51.6895 102.533 51.7012 102.297L51.6738 102.655ZM51.0244 98.6396V98.6387V98.6396ZM49.5361 96.626C49.68 96.7641 49.8197 96.9124 49.9551 97.0703C50.028 97.1489 50.0996 97.2282 50.168 97.3096C50.0994 97.228 50.0282 97.1481 49.9551 97.0693C49.8198 96.9115 49.6799 96.764 49.5361 96.626ZM49.2852 96.3994C49.2271 96.3499 49.1688 96.3014 49.1094 96.2549C49.1687 96.3014 49.2271 96.3499 49.2852 96.3994ZM49.0352 96.1992C48.985 96.1613 48.9349 96.1237 48.8838 96.0879C48.9349 96.1237 48.985 96.1613 49.0352 96.1992ZM48.8096 96.0381C48.763 96.0067 48.7162 95.976 48.6689 95.9463C48.7162 95.976 48.763 96.0067 48.8096 96.0381ZM48.5645 95.8828C48.5175 95.8549 48.4706 95.827 48.4229 95.8008C48.4706 95.8271 48.5175 95.8549 48.5645 95.8828ZM48.334 95.7529C48.2856 95.7276 48.2366 95.7034 48.1875 95.6797C48.2366 95.7034 48.2856 95.7276 48.334 95.7529ZM48.084 95.6309C48.0314 95.607 47.9782 95.5844 47.9248 95.5625C47.9782 95.5845 48.0314 95.607 48.084 95.6309ZM47.8389 95.5283C47.7907 95.5096 47.7422 95.4918 47.6934 95.4746C47.7422 95.4918 47.7907 95.5096 47.8389 95.5283ZM47.5625 95.4297C47.5263 95.4181 47.4897 95.4073 47.4531 95.3965C47.4897 95.4073 47.5263 95.418 47.5625 95.4297ZM47.3008 95.3535C47.262 95.3434 47.2228 95.3344 47.1836 95.3252C47.2228 95.3345 47.262 95.3434 47.3008 95.3535ZM47.0391 95.292C46.9989 95.2837 46.9585 95.2769 46.918 95.2695C46.9585 95.2769 46.9989 95.2837 47.0391 95.292ZM46.7588 95.2422C46.7129 95.2353 46.6665 95.2303 46.6201 95.2246C46.6665 95.2303 46.7129 95.2353 46.7588 95.2422ZM46.4922 95.209C46.4083 95.2006 46.3237 95.1942 46.2383 95.1895C46.3237 95.1942 46.4083 95.2006 46.4922 95.209ZM40.4756 95.1406C40.7465 95.1639 41.0214 95.1783 41.3008 95.1787L40.7803 95.165C40.678 95.1595 40.5766 95.1493 40.4756 95.1406ZM38.168 94.6309C38.5499 94.7731 38.9423 94.8858 39.3447 94.9727C38.9423 94.8858 38.5499 94.773 38.168 94.6309ZM36.9492 94.0635C37.3294 94.278 37.7209 94.4616 38.124 94.6143C37.7209 94.4616 37.3294 94.278 36.9492 94.0635ZM17.5547 82.502C17.5548 82.9424 17.5664 83.3789 17.583 83.8115C17.5665 83.3789 17.5548 82.9424 17.5547 82.502ZM31.0547 82.4902C31.0547 82.8114 31.0663 83.1276 31.082 83.4395C31.0662 83.1273 31.0547 82.8107 31.0547 82.4893V82.4902ZM298.798 45.9053C293.668 45.9053 289.257 47.0303 285.567 49.2803C281.968 51.5302 279.223 54.635 277.333 58.5947C276.254 60.8037 275.485 63.1892 275.021 65.75H319.979C319.582 62.755 318.778 60.0095 317.562 57.5146C315.853 53.9148 313.422 51.0797 310.272 49.0098C307.123 46.9399 303.298 45.9053 298.798 45.9053ZM10.9941 49.1387H10.9951H10.9941ZM42.8799 49.1387C42.9869 49.1348 43.0927 49.1286 43.1973 49.1211C43.0927 49.1286 42.9869 49.1348 42.8799 49.1387ZM43.3467 49.1074C43.3997 49.1027 43.4525 49.0975 43.5049 49.0918C43.4525 49.0975 43.3997 49.1027 43.3467 49.1074ZM10.2803 49.082C10.303 49.0848 10.3258 49.0873 10.3486 49.0898C10.3258 49.0873 10.303 49.0848 10.2803 49.082ZM43.6592 49.0732C43.7086 49.0669 43.7578 49.0609 43.8066 49.0537C43.7578 49.0609 43.7086 49.0669 43.6592 49.0732ZM43.9629 49.0283C44.019 49.0188 44.0746 49.0087 44.1299 48.998C44.0746 49.0087 44.019 49.0188 43.9629 49.0283ZM44.2422 48.9756C44.3043 48.9626 44.3657 48.9481 44.4268 48.9336C44.3657 48.9481 44.3043 48.9626 44.2422 48.9756ZM9.2998 48.8975C9.38885 48.9207 9.47906 48.9419 9.57031 48.9619C9.47905 48.9419 9.38886 48.9207 9.2998 48.8975ZM44.54 48.9062C44.5932 48.8926 44.6458 48.8781 44.6982 48.8633C44.6458 48.8781 44.5932 48.8926 44.54 48.9062ZM45.3486 48.6436C45.1807 48.7112 45.0081 48.7712 44.8311 48.8252C45.0081 48.7712 45.1808 48.7113 45.3486 48.6436ZM45.4941 48.5811C45.5341 48.5637 45.5739 48.5465 45.6133 48.5283C45.5739 48.5464 45.5341 48.5637 45.4941 48.5811ZM45.7119 48.4814C45.7693 48.4537 45.8266 48.426 45.8828 48.3965C45.8265 48.426 45.7693 48.4537 45.7119 48.4814ZM45.9658 48.3516C46.0208 48.3216 46.075 48.2905 46.1289 48.2588C46.075 48.2905 46.0208 48.3216 45.9658 48.3516ZM46.2061 48.2129C46.2615 48.1791 46.3159 48.144 46.3701 48.1084C46.3159 48.144 46.2615 48.1791 46.2061 48.2129ZM46.4502 48.0557C46.5083 48.0161 46.5654 47.9753 46.6221 47.9336C46.5654 47.9753 46.5083 48.0161 46.4502 48.0557ZM6.17676 46.9102C6.19393 46.9313 6.21195 46.9517 6.22949 46.9727C6.21195 46.9517 6.19392 46.9313 6.17676 46.9102ZM47.6455 46.9727C47.6631 46.9517 47.6811 46.9313 47.6982 46.9102C47.6811 46.9313 47.6631 46.9517 47.6455 46.9727ZM6.00098 46.6816C6.03168 46.7238 6.06359 46.7652 6.0957 46.8066C6.06359 46.7652 6.03168 46.7238 6.00098 46.6816ZM47.7783 46.8066C47.8106 46.765 47.8432 46.7239 47.874 46.6816C47.8432 46.7239 47.8106 46.765 47.7783 46.8066ZM5.85742 46.4756C5.88437 46.5165 5.91319 46.5563 5.94141 46.5967C5.91319 46.5563 5.88437 46.5165 5.85742 46.4756ZM47.9336 46.5967C47.9617 46.5565 47.9897 46.5164 48.0166 46.4756C47.9897 46.5164 47.9617 46.5565 47.9336 46.5967ZM5.72266 46.2578C5.73288 46.2752 5.74346 46.2923 5.75391 46.3096C5.74346 46.2923 5.73288 46.2752 5.72266 46.2578ZM48.1211 46.3096C48.1315 46.2925 48.1412 46.275 48.1514 46.2578C48.1412 46.275 48.1315 46.2925 48.1211 46.3096ZM5.57422 45.9873C5.59849 46.0349 5.62361 46.082 5.64941 46.1289C5.62361 46.082 5.59848 46.0349 5.57422 45.9873ZM48.2246 46.1289C48.2504 46.082 48.2755 46.0349 48.2998 45.9873C48.2755 46.0349 48.2504 46.082 48.2246 46.1289ZM5.46191 45.7539C5.48544 45.8066 5.51081 45.8583 5.53613 45.9102C5.51081 45.8583 5.48544 45.8066 5.46191 45.7539ZM48.3379 45.9102C48.3629 45.859 48.3879 45.8078 48.4111 45.7559C48.3879 45.8079 48.3629 45.859 48.3379 45.9102ZM5.36035 45.5078C5.37926 45.5569 5.39854 45.6059 5.41895 45.6543C5.39854 45.6059 5.37926 45.5569 5.36035 45.5078ZM48.4688 45.6221C48.4806 45.5933 48.4916 45.5642 48.5029 45.5352C48.4916 45.5642 48.4806 45.5933 48.4688 45.6221ZM5.27051 45.2549C5.28619 45.303 5.30229 45.3509 5.31934 45.3984C5.30229 45.3509 5.28618 45.303 5.27051 45.2549ZM48.5566 45.3926C48.5729 45.347 48.5885 45.3011 48.6035 45.2549C48.5885 45.3011 48.5729 45.347 48.5566 45.3926ZM5.19824 45.0127C5.21019 45.0565 5.22231 45.1002 5.23535 45.1436C5.22232 45.1002 5.21019 45.0565 5.19824 45.0127ZM48.6387 45.1436C48.6517 45.1002 48.6638 45.0565 48.6758 45.0127C48.6638 45.0565 48.6517 45.1002 48.6387 45.1436ZM5.13477 44.7529C5.1435 44.7928 5.15154 44.8326 5.16113 44.8721C5.15154 44.8326 5.1435 44.7928 5.13477 44.7529ZM48.7129 44.8721C48.7225 44.8326 48.7305 44.7928 48.7393 44.7529C48.7305 44.7928 48.7225 44.8326 48.7129 44.8721ZM5.08008 44.4717C5.08754 44.5168 5.095 44.5618 5.10352 44.6064C5.095 44.5618 5.08754 44.5168 5.08008 44.4717ZM48.7705 44.6064C48.779 44.5618 48.7865 44.5168 48.7939 44.4717C48.7865 44.5168 48.779 44.5618 48.7705 44.6064ZM5.02637 44.0674C5.03492 44.1585 5.04602 44.2486 5.05859 44.3379C5.04602 44.2486 5.03491 44.1585 5.02637 44.0674ZM5.00586 43.1465C5.00143 43.2545 5 43.3639 5 43.4746C5 43.3639 5.00143 43.2545 5.00586 43.1465ZM48.8633 43.0781C48.8594 42.9999 48.8549 42.9225 48.8486 42.8457C48.8549 42.9225 48.8594 42.9999 48.8633 43.0781ZM5.05859 42.5215C5.05068 42.5831 5.04538 42.6454 5.03906 42.708C5.04539 42.6454 5.05067 42.5831 5.05859 42.5215ZM48.8252 42.6064C48.8228 42.5855 48.82 42.5647 48.8174 42.5439C48.82 42.5647 48.8228 42.5855 48.8252 42.6064ZM5.10059 42.2432C5.09397 42.2816 5.08897 42.3205 5.08301 42.3594C5.08898 42.3205 5.09396 42.2816 5.10059 42.2432ZM48.7891 42.3467C48.7837 42.3121 48.7793 42.2774 48.7734 42.2432C48.7793 42.2774 48.7837 42.3121 48.7891 42.3467ZM5.16016 41.9443C5.15021 41.989 5.14085 42.0339 5.13184 42.0791C5.14086 42.0339 5.1502 41.989 5.16016 41.9443ZM48.7422 42.0791C48.7332 42.0339 48.7238 41.989 48.7139 41.9443C48.7238 41.989 48.7332 42.0339 48.7422 42.0791ZM5.24023 41.6289C5.22416 41.686 5.20879 41.7436 5.19434 41.8018C5.2088 41.7436 5.22415 41.686 5.24023 41.6289ZM48.6797 41.8018C48.6652 41.7437 48.6508 41.686 48.6348 41.6289C48.6508 41.686 48.6652 41.7437 48.6797 41.8018ZM5.32129 41.3643C5.30155 41.4232 5.28354 41.4829 5.26562 41.543C5.28355 41.4829 5.30154 41.4232 5.32129 41.3643ZM48.6016 41.5195C48.588 41.4749 48.5741 41.4307 48.5596 41.3867C48.5741 41.4307 48.588 41.4749 48.6016 41.5195ZM5.41113 41.1172C5.39275 41.1644 5.37457 41.2118 5.35742 41.2598C5.37457 41.2118 5.39274 41.1644 5.41113 41.1172ZM48.5127 41.249C48.4967 41.2047 48.4799 41.1609 48.4629 41.1172C48.4799 41.1609 48.4967 41.2047 48.5127 41.249ZM5.52637 40.8457C5.50769 40.8868 5.48936 40.928 5.47168 40.9697C5.48937 40.928 5.50768 40.8868 5.52637 40.8457ZM48.4033 40.9697C48.3856 40.928 48.3673 40.8868 48.3486 40.8457C48.3673 40.8868 48.3856 40.928 48.4033 40.9697ZM5.66797 40.5566C5.63582 40.6171 5.60502 40.6783 5.5752 40.7402C5.60503 40.6783 5.63581 40.6171 5.66797 40.5566ZM48.2988 40.7402C48.2752 40.6912 48.2507 40.6428 48.2256 40.5947C48.2507 40.6428 48.2752 40.6912 48.2988 40.7402ZM5.79102 40.3379C5.76018 40.3896 5.72922 40.4413 5.7002 40.4941C5.72923 40.4413 5.76018 40.3896 5.79102 40.3379ZM48.1641 40.4775C48.1451 40.4433 48.1252 40.4097 48.1055 40.376C48.1252 40.4097 48.1451 40.4433 48.1641 40.4775ZM5.9707 40.0576C5.92861 40.1188 5.88701 40.1803 5.84766 40.2432C5.88701 40.1803 5.92861 40.1188 5.9707 40.0576ZM48.0146 40.2246C47.999 40.1998 47.9819 40.1759 47.9658 40.1514C47.9819 40.1759 47.999 40.1998 48.0146 40.2246ZM6.16211 39.7949C6.33926 39.5691 6.53724 39.3562 6.75488 39.1553C6.97198 38.9549 7.20147 38.7726 7.44336 38.6094C7.20154 38.7725 6.97192 38.954 6.75488 39.1543C6.68174 39.2218 6.61056 39.291 6.54199 39.3613C6.40644 39.5004 6.27978 39.6449 6.16211 39.7949ZM47.8682 40.0059C47.8341 39.9576 47.7985 39.9105 47.7627 39.8633C47.7985 39.9105 47.8341 39.9576 47.8682 40.0059ZM47.7012 39.7822C47.6637 39.7348 47.6242 39.6889 47.585 39.6426C47.6242 39.6889 47.6637 39.7348 47.7012 39.7822ZM47.5254 39.5713C47.4905 39.5316 47.4542 39.493 47.418 39.4541C47.4542 39.493 47.4905 39.5316 47.5254 39.5713ZM46.4307 38.6094C46.6728 38.7727 46.9028 38.9547 47.1201 39.1553C47.1484 39.1814 47.1755 39.2088 47.2031 39.2354L47.1201 39.1543C46.9029 38.9538 46.6727 38.7726 46.4307 38.6094ZM7.68359 38.4561C7.62504 38.4914 7.56793 38.529 7.51074 38.5664C7.56792 38.529 7.62505 38.4914 7.68359 38.4561ZM46.3643 38.5664C46.3068 38.5288 46.2492 38.4916 46.1904 38.4561C46.2492 38.4916 46.3068 38.5288 46.3643 38.5664ZM7.93848 38.3105C7.87016 38.3472 7.80291 38.3855 7.73633 38.4248C7.8029 38.3855 7.87017 38.3472 7.93848 38.3105ZM46.1377 38.4248C46.0711 38.3855 46.0039 38.3472 45.9355 38.3105C46.0039 38.3472 46.0711 38.3855 46.1377 38.4248ZM8.19238 38.1826C8.12714 38.2137 8.06278 38.246 7.99902 38.2793C8.06277 38.246 8.12715 38.2137 8.19238 38.1826ZM45.876 38.2793C45.812 38.2459 45.7472 38.2138 45.6816 38.1826C45.7471 38.2138 45.812 38.2459 45.876 38.2793ZM8.47852 38.0557C8.40466 38.0862 8.33183 38.1182 8.25977 38.1514C8.33182 38.1182 8.40467 38.0862 8.47852 38.0557ZM45.6143 38.1514C45.5422 38.1182 45.4694 38.0861 45.3955 38.0557C45.4694 38.0862 45.5422 38.1182 45.6143 38.1514ZM8.76172 37.9473C8.679 37.9767 8.59721 38.0074 8.5166 38.04C8.5972 38.0074 8.679 37.9768 8.76172 37.9473ZM45.3574 38.04C45.2768 38.0074 45.195 37.9767 45.1123 37.9473C45.195 37.9767 45.2768 38.0074 45.3574 38.04ZM9.00684 37.8652C8.93739 37.8868 8.86881 37.9099 8.80078 37.9336C8.8688 37.9099 8.9374 37.8869 9.00684 37.8652ZM45.0732 37.9336C45.0052 37.9099 44.9366 37.8868 44.8672 37.8652C44.9366 37.8868 45.0052 37.9099 45.0732 37.9336ZM9.2998 37.7812C9.24069 37.7967 9.18217 37.8132 9.12402 37.8301C9.18216 37.8132 9.2407 37.7967 9.2998 37.7812ZM44.75 37.8301C44.6919 37.8132 44.6333 37.7967 44.5742 37.7812C44.6333 37.7967 44.6919 37.8132 44.75 37.8301ZM9.61426 37.707C9.54299 37.7222 9.47228 37.7378 9.40234 37.7549C9.47228 37.7378 9.54299 37.7222 9.61426 37.707ZM44.4717 37.7549C44.4017 37.7378 44.331 37.7221 44.2598 37.707C44.331 37.7222 44.4017 37.7378 44.4717 37.7549ZM9.87109 37.6572C9.81668 37.6667 9.76266 37.6769 9.70898 37.6875C9.76265 37.6769 9.81668 37.6668 9.87109 37.6572ZM44.165 37.6875C44.1114 37.6769 44.0573 37.6667 44.0029 37.6572C44.0573 37.6667 44.1114 37.6769 44.165 37.6875ZM10.2012 37.6074C10.1465 37.6146 10.0921 37.6217 10.0381 37.6299C10.0921 37.6217 10.1465 37.6146 10.2012 37.6074ZM43.8359 37.6299C43.7819 37.6217 43.7276 37.6146 43.6729 37.6074C43.7275 37.6146 43.782 37.6217 43.8359 37.6299ZM10.9951 37.541C10.769 37.5493 10.5483 37.5654 10.333 37.5898C10.5483 37.5654 10.769 37.5493 10.9951 37.541ZM42.8799 37.541C43.1056 37.5493 43.326 37.5654 43.541 37.5898C43.326 37.5654 43.1056 37.5493 42.8799 37.541ZM142.523 5C144.953 5.00004 147.023 5.90024 148.733 7.7002C150.533 9.41016 151.434 11.4802 151.434 13.9102C151.434 16.34 150.533 18.4549 148.733 20.2549C147.023 21.9648 144.953 22.8203 142.523 22.8203C140.094 22.8203 137.979 21.9648 136.179 20.2549C134.469 18.4549 133.613 16.3401 133.613 13.9102C133.613 11.4802 134.469 9.41019 136.179 7.7002C137.979 5.90028 140.093 5 142.523 5ZM17.6729 16.6768C17.6138 17.0144 17.5773 17.3646 17.5625 17.7275C17.5773 17.365 17.6138 17.015 17.6729 16.6777V16.6768ZM31.0068 17.2012C31.0017 17.1521 30.9972 17.1032 30.9912 17.0547C30.9972 17.1032 31.0017 17.1521 31.0068 17.2012ZM30.9727 16.9189C30.9625 16.8475 30.9525 16.7764 30.9404 16.7061C30.9525 16.7764 30.9625 16.8475 30.9727 16.9189ZM30.9199 16.5967C30.9069 16.5272 30.8938 16.4581 30.8789 16.3896C30.8938 16.4581 30.9069 16.5272 30.9199 16.5967ZM18.293 14.8037C18.1453 15.0906 18.0194 15.39 17.916 15.7021C17.8816 15.8062 17.8498 15.9117 17.8203 16.0186V16.0195C17.9384 15.5921 18.0961 15.1872 18.293 14.8047V14.8037ZM30.8486 16.2598C30.8338 16.1971 30.8183 16.135 30.8018 16.0732C30.8183 16.135 30.8338 16.1971 30.8486 16.2598ZM30.7598 15.9238C30.7457 15.8758 30.7319 15.8278 30.7168 15.7803C30.7319 15.8278 30.7457 15.8757 30.7598 15.9238ZM30.665 15.625C30.6458 15.5693 30.6261 15.5139 30.6055 15.459C30.6261 15.5139 30.6458 15.5693 30.665 15.625ZM30.5586 15.3389C30.537 15.285 30.5142 15.2318 30.4912 15.1787C30.5142 15.2318 30.537 15.285 30.5586 15.3389ZM30.4238 15.0283C30.4039 14.9854 30.3832 14.9428 30.3623 14.9004C30.3832 14.9428 30.4039 14.9854 30.4238 15.0283ZM30.293 14.7627C30.2692 14.7174 30.2446 14.6726 30.2197 14.6279C30.2446 14.6726 30.2692 14.7174 30.293 14.7627ZM23.2285 11.4111C22.8825 11.4554 22.5492 11.5218 22.2285 11.6104C22.1217 11.6399 22.0161 11.6716 21.9121 11.7061C20.9756 12.016 20.153 12.5257 19.4443 13.2344C19.0506 13.6281 18.7189 14.0574 18.4482 14.5215L18.6182 14.2471C18.8544 13.8872 19.1304 13.5503 19.4453 13.2354C20.4689 12.2118 21.7297 11.6032 23.2285 11.4111ZM30.1299 14.4707C30.1148 14.4455 30.0994 14.4205 30.084 14.3955C30.0994 14.4205 30.1148 14.4455 30.1299 14.4707ZM29.7881 13.957C29.7696 13.9321 29.7504 13.9076 29.7314 13.8828C29.7504 13.9076 29.7696 13.9321 29.7881 13.957ZM28.9717 13.0508C29.0368 13.1109 29.1018 13.1721 29.165 13.2354C29.2383 13.3086 29.309 13.3833 29.3779 13.459L29.165 13.2344C29.1019 13.1712 29.0367 13.1108 28.9717 13.0508ZM28.8389 12.9326C28.788 12.8881 28.7375 12.8434 28.6855 12.8008C28.7375 12.8434 28.788 12.8881 28.8389 12.9326ZM28.6279 12.7549C28.5607 12.701 28.4928 12.6484 28.4238 12.5977C28.4928 12.6484 28.5607 12.701 28.6279 12.7549ZM28.3926 12.5752C28.3182 12.5212 28.2434 12.4684 28.167 12.418C28.2434 12.4684 28.3182 12.5212 28.3926 12.5752ZM28.1113 12.3828C28.0429 12.3387 27.9743 12.2952 27.9043 12.2539C27.9743 12.2952 28.0429 12.3387 28.1113 12.3828ZM27.8047 12.1982C27.7542 12.1697 27.7037 12.1413 27.6523 12.1143C27.7037 12.1414 27.7542 12.1697 27.8047 12.1982ZM27.5225 12.0479C27.4642 12.0189 27.4059 11.9901 27.3467 11.9629C27.4059 11.9901 27.4643 12.0189 27.5225 12.0479ZM27.2529 11.9209C27.1897 11.8932 27.1259 11.8666 27.0615 11.8408C27.1259 11.8666 27.1897 11.8931 27.2529 11.9209ZM26.9551 11.7988C26.8893 11.7739 26.8228 11.7504 26.7559 11.7275C26.8228 11.7504 26.8893 11.7739 26.9551 11.7988ZM26.6475 11.6914C26.5938 11.6741 26.5398 11.6576 26.4854 11.6416C26.5398 11.6576 26.5938 11.6741 26.6475 11.6914ZM26.3164 11.5938C26.2744 11.5826 26.2319 11.5729 26.1895 11.5625C26.2319 11.5729 26.2744 11.5826 26.3164 11.5938ZM26.001 11.5176C25.9554 11.5077 25.9094 11.4992 25.8633 11.4902C25.9094 11.4992 25.9554 11.5077 26.001 11.5176ZM25.6875 11.457C25.6364 11.4484 25.5849 11.4413 25.5332 11.4336C25.5849 11.4413 25.6364 11.4483 25.6875 11.457ZM25.3428 11.4062C25.3253 11.4041 25.3076 11.4034 25.29 11.4014C25.3076 11.4034 25.3253 11.4041 25.3428 11.4062ZM48.8682 107.222C48.9484 107.164 49.0267 107.105 49.1045 107.044C49.0267 107.105 48.9484 107.164 48.8682 107.222ZM49.5361 96.626C49.4677 96.5603 49.3985 96.4968 49.3281 96.4355C49.3984 96.4968 49.4677 96.5603 49.5361 96.626ZM48.8154 44.3379C48.8272 44.2547 48.8365 44.1707 48.8447 44.0859C48.8365 44.1707 48.8271 44.2547 48.8154 44.3379ZM5.02539 42.8447C5.02141 42.8936 5.01866 42.9428 5.01562 42.9922C5.01866 42.9428 5.0214 42.8936 5.02539 42.8447ZM48.875 43.4746C48.875 43.3642 48.8726 43.2552 48.8682 43.1475C48.8726 43.2552 48.875 43.3642 48.875 43.4746ZM6.12695 39.8428C6.082 39.9015 6.03738 39.9602 5.99512 40.0205C6.03738 39.9602 6.082 39.9014 6.12695 39.8428ZM6.12695 39.8428C6.13898 39.8271 6.14989 39.8105 6.16211 39.7949C6.14989 39.8105 6.13898 39.8271 6.12695 39.8428Z" fill="#262626"/>
<path d="M162.797 2.68263C162.798 0.663569 165.451 -0.0830243 166.504 1.63966L184.261 30.6983C190.871 26.8084 198.573 24.5752 206.797 24.5752C231.373 24.5752 251.297 44.4987 251.297 69.0752C251.297 93.6517 231.373 113.575 206.797 113.575C182.22 113.575 162.297 93.6517 162.297 69.0752C162.297 66.8024 162.468 64.5688 162.797 62.3877V2.68263ZM206.797 47.6797C194.923 47.6797 185.297 57.3863 185.297 69.3594C185.297 81.3324 194.923 91.0381 206.797 91.0381C210.77 91.0381 214.492 89.9508 217.686 88.0557L226.265 102.212C226.774 103.051 228.055 102.688 228.056 101.704V72.6172C228.214 71.5547 228.297 70.4666 228.297 69.3594C228.297 57.3863 218.671 47.6797 206.797 47.6797Z" fill="#BA1863"/>
</svg>
